<svg width="588" height="583" viewBox="0 0 588 583" fill="none" xmlns="http://www.w3.org/2000/svg">
<mask id="mask0" mask-type="alpha" maskUnits="userSpaceOnUse" x="0" y="63" width="588" height="520">
<path fill-rule="evenodd" clip-rule="evenodd" d="M0.0734253 63.2783H587.757V582.299H0.0734253V63.2783Z" fill="white"/>
</mask>
<g mask="url(#mask0)">
<path fill-rule="evenodd" clip-rule="evenodd" d="M516.15 558.807C500.943 567.034 483.248 572.975 463.745 576.835C450.799 579.374 437.005 581.05 422.646 581.761C369.846 584.656 309.131 575.768 250.621 557.994C237.506 554.033 224.503 549.615 211.727 544.739C116.585 508.784 33.8791 450.078 10.7012 382.028C-31.641 257.81 59.2617 168.481 164.523 86.5156C207.205 53.2521 262.832 58.0258 320.381 86.1093C333.835 92.6605 347.346 100.481 360.857 109.368C411.566 142.835 461.766 191.537 504.165 245.673C587.379 351.963 635.544 494.362 516.15 558.807" fill="#FDE6D6"/>
</g>
<path fill-rule="evenodd" clip-rule="evenodd" d="M471.791 158.379C461.971 140.595 458.376 118.087 478.066 110.841C500.057 102.751 535.095 115.833 545.293 145.516C551.811 164.484 549.573 190.962 531.562 201.14C516.151 209.854 483.838 180.191 471.791 158.379" fill="#E8E5EA"/>
<path fill-rule="evenodd" clip-rule="evenodd" d="M160.039 67.8906C160.022 67.8906 160.005 67.8906 159.988 67.8906C156.206 67.657 152.413 67.53 148.727 67.5097C148.332 67.5097 148.021 67.2253 148.021 66.8749C148.026 66.5245 148.337 66.2401 148.727 66.2401H148.733C152.453 66.2604 156.274 66.3874 160.09 66.621C160.48 66.6464 160.769 66.9511 160.746 67.3015C160.718 67.6367 160.407 67.8906 160.039 67.8906V67.8906ZM126.154 68.8657C125.809 68.8657 125.504 68.6371 125.453 68.3223C125.397 67.9769 125.662 67.6519 126.052 67.6011C129.704 67.1238 133.515 66.7683 137.364 66.5397C137.805 66.4737 138.094 66.7835 138.116 67.1339C138.144 67.4793 137.851 67.784 137.46 67.8043C133.645 68.0328 129.874 68.3883 126.256 68.8555C126.222 68.8606 126.188 68.8657 126.154 68.8657V68.8657ZM182.505 70.4044C182.46 70.4044 182.42 70.3993 182.38 70.3942C178.666 69.795 174.913 69.2872 171.221 68.8707C170.831 68.825 170.554 68.5102 170.605 68.1598C170.656 67.8144 170.978 67.5808 171.396 67.6113C175.116 68.0277 178.892 68.5457 182.629 69.145C183.008 69.2059 183.268 69.536 183.2 69.8813C183.138 70.186 182.838 70.4044 182.505 70.4044V70.4044ZM104.118 73.4514C103.819 73.4514 103.542 73.2788 103.446 73.0045C103.327 72.6694 103.536 72.3139 103.909 72.2123C107.488 71.1966 111.173 70.2927 114.871 69.5157C115.244 69.4344 115.634 69.6477 115.719 69.988C115.809 70.3282 115.572 70.6685 115.193 70.7497C111.53 71.5216 107.872 72.4205 104.333 73.421C104.26 73.4413 104.192 73.4514 104.118 73.4514V73.4514ZM204.597 74.8531C204.535 74.8531 204.473 74.848 204.411 74.8327C200.736 73.9389 197.05 73.1213 193.449 72.3951C193.065 72.3189 192.828 71.9787 192.912 71.6333C192.997 71.2931 193.353 71.0747 193.755 71.156C197.378 71.8873 201.087 72.71 204.784 73.6038C205.157 73.7003 205.383 74.0456 205.276 74.3858C205.191 74.6652 204.908 74.8531 204.597 74.8531V74.8531ZM226.232 80.8964C226.153 80.8964 226.074 80.8862 225.995 80.8608C222.456 79.7385 218.843 78.667 215.271 77.6665C214.897 77.5599 214.688 77.2044 214.807 76.8743C214.92 76.5391 215.321 76.3462 215.689 76.4579C219.279 77.4583 222.908 78.54 226.464 79.6623C226.831 79.7791 227.029 80.1448 226.899 80.4749C226.797 80.7339 226.526 80.8964 226.232 80.8964V80.8964ZM83.1845 81.0944C82.9301 81.0944 82.6814 80.9674 82.557 80.744C82.3818 80.4342 82.5175 80.0533 82.868 79.8908C86.1977 78.3673 89.68 76.9403 93.2132 75.6554C93.5637 75.5132 93.9821 75.6808 94.129 76.0058C94.276 76.3309 94.1008 76.7016 93.739 76.8336C90.2453 78.1032 86.8026 79.515 83.5068 81.0233C83.405 81.069 83.292 81.0944 83.1845 81.0944V81.0944ZM247.352 88.255C247.262 88.255 247.171 88.2397 247.075 88.2042C243.615 86.8838 240.093 85.5939 236.6 84.3802C236.238 84.2532 236.057 83.8825 236.198 83.5575C236.345 83.2324 236.752 83.0801 237.114 83.1969C240.619 84.4157 244.158 85.7107 247.629 87.0362C247.991 87.1733 248.155 87.544 248.008 87.869C247.889 88.1077 247.629 88.255 247.352 88.255V88.255ZM64.077 91.9165C63.8622 91.9165 63.6586 91.8352 63.5173 91.6727C63.2799 91.3934 63.3364 90.9922 63.6473 90.7789C66.6152 88.7272 69.7527 86.7568 72.9694 84.9337C73.3029 84.7509 73.7382 84.8372 73.9474 85.1317C74.1565 85.4314 74.0548 85.8224 73.7269 86.0052C70.5442 87.8131 67.4462 89.7582 64.5066 91.7895C64.3822 91.8758 64.2296 91.9165 64.077 91.9165V91.9165ZM267.941 96.7461C267.839 96.7461 267.732 96.7257 267.63 96.68C264.227 95.1717 260.795 93.7041 257.42 92.3126C257.07 92.1653 256.912 91.7845 257.076 91.4696C257.24 91.1497 257.658 91.0075 258.014 91.1547C261.395 92.5513 264.843 94.0291 268.258 95.5374C268.608 95.6948 268.749 96.0757 268.58 96.3906C268.455 96.614 268.201 96.7461 267.941 96.7461V96.7461ZM47.5641 105.765C47.3945 105.765 47.2305 105.714 47.0949 105.603C46.8009 105.374 46.7783 104.973 47.0383 104.709C49.5427 102.175 52.211 99.7118 54.9754 97.3961C55.258 97.1523 55.7046 97.1675 55.9703 97.4214C56.2417 97.6804 56.2247 98.0816 55.9364 98.3203C53.2116 100.616 50.5715 103.048 48.0898 105.552C47.9541 105.694 47.7619 105.765 47.5641 105.765V105.765ZM287.993 106.222C287.874 106.222 287.761 106.197 287.648 106.141C284.363 104.491 281.017 102.86 277.71 101.296C277.365 101.134 277.229 100.748 277.41 100.438C277.597 100.128 278.026 100.006 278.365 100.169C281.689 101.743 285.042 103.378 288.338 105.034C288.677 105.207 288.801 105.593 288.609 105.897C288.479 106.106 288.241 106.222 287.993 106.222V106.222ZM307.496 116.592C307.372 116.592 307.242 116.562 307.123 116.496C303.901 114.688 300.65 112.916 297.462 111.219C297.123 111.042 297.009 110.651 297.213 110.351C297.405 110.041 297.841 109.945 298.18 110.128C301.374 111.824 304.641 113.606 307.875 115.419C308.203 115.607 308.304 115.998 308.095 116.298C307.965 116.486 307.734 116.592 307.496 116.592V116.592ZM34.1265 122.097C33.9965 122.097 33.8721 122.067 33.7534 122.001C33.4255 121.818 33.3181 121.427 33.5216 121.127C35.5115 118.217 37.6541 115.363 39.8758 112.652C40.1132 112.372 40.5541 112.316 40.8651 112.52C41.1816 112.728 41.2438 113.124 41.0121 113.403C38.813 116.09 36.6987 118.908 34.7257 121.793C34.5957 121.991 34.3639 122.097 34.1265 122.097V122.097ZM326.434 127.775C326.293 127.775 326.151 127.734 326.033 127.663C322.901 125.718 319.741 123.809 316.649 121.981C316.321 121.788 316.23 121.397 316.445 121.102C316.66 120.818 317.095 120.731 317.423 120.919C320.527 122.753 323.692 124.667 326.83 126.612C327.158 126.815 327.237 127.211 327.016 127.496C326.875 127.674 326.655 127.775 326.434 127.775V127.775ZM344.756 139.684C344.609 139.684 344.462 139.643 344.332 139.557C341.302 137.5 338.249 135.464 335.253 133.514C334.936 133.305 334.869 132.909 335.095 132.63C335.327 132.341 335.767 132.28 336.084 132.488C339.086 134.438 342.15 136.479 345.186 138.546C345.497 138.755 345.553 139.156 345.321 139.435C345.18 139.598 344.971 139.684 344.756 139.684V139.684ZM23.8322 140.187C23.7417 140.187 23.6513 140.171 23.5608 140.141C23.199 140.004 23.0294 139.628 23.1821 139.308C24.6632 136.139 26.2744 133.021 27.9647 130.045C28.1399 129.73 28.5639 129.603 28.9144 129.766C29.2649 129.923 29.4006 130.309 29.2253 130.619C27.5463 133.575 25.9521 136.662 24.4823 139.801C24.3692 140.044 24.1092 140.187 23.8322 140.187V140.187ZM362.513 152.339C362.354 152.339 362.196 152.294 362.06 152.197C359.211 150.069 356.255 147.911 353.27 145.783C352.964 145.565 352.914 145.169 353.157 144.894C353.405 144.62 353.846 144.579 354.146 144.788C357.142 146.921 360.11 149.084 362.965 151.217C363.264 151.44 363.31 151.842 363.061 152.111C362.92 152.263 362.716 152.339 362.513 152.339V152.339ZM16.4435 159.398C16.3756 159.398 16.3134 159.393 16.2513 159.378C15.8781 159.281 15.652 158.931 15.7594 158.591C16.7883 155.285 17.9189 152.004 19.1287 148.845C19.2587 148.515 19.6658 148.327 20.0276 148.449C20.395 148.566 20.5929 148.927 20.4685 149.257C19.2644 152.395 18.1394 155.65 17.1218 158.936C17.037 159.215 16.7487 159.398 16.4435 159.398V159.398ZM379.664 165.726C379.489 165.726 379.325 165.67 379.189 165.558C376.402 163.283 373.548 161.003 370.704 158.784C370.41 158.56 370.382 158.154 370.636 157.89C370.891 157.621 371.337 157.606 371.631 157.829C374.486 160.053 377.341 162.339 380.139 164.619C380.427 164.858 380.45 165.259 380.184 165.518C380.043 165.655 379.856 165.726 379.664 165.726V165.726ZM11.5705 179.26C11.5309 179.26 11.4913 179.255 11.4518 179.25C11.0674 179.194 10.8073 178.864 10.8751 178.518C11.5026 175.141 12.2262 171.774 13.0233 168.504C13.1081 168.164 13.4812 167.95 13.8657 168.016C14.2444 168.092 14.4875 168.433 14.4027 168.773C13.6113 172.023 12.8933 175.375 12.2658 178.727C12.2093 179.036 11.9097 179.26 11.5705 179.26V179.26ZM396.075 179.763C395.894 179.763 395.714 179.702 395.578 179.575C392.904 177.183 390.173 174.796 387.471 172.485C387.189 172.242 387.177 171.84 387.449 171.586C387.714 171.338 388.167 171.322 388.444 171.566C391.157 173.887 393.893 176.279 396.573 178.676C396.85 178.925 396.85 179.326 396.573 179.575C396.437 179.702 396.256 179.763 396.075 179.763V179.763ZM411.723 194.48C411.531 194.48 411.344 194.409 411.203 194.272C408.665 191.768 406.07 189.264 403.487 186.837C403.221 186.588 403.232 186.182 403.509 185.943C403.798 185.704 404.238 185.704 404.51 185.963C407.105 188.396 409.705 190.905 412.249 193.418C412.515 193.677 412.492 194.079 412.198 194.312C412.068 194.424 411.898 194.48 411.723 194.48V194.48ZM8.83999 199.446C8.82303 199.446 8.80607 199.446 8.78346 199.446C8.39339 199.416 8.10508 199.111 8.13334 198.766C8.43296 195.343 8.81172 191.925 9.25832 188.614C9.30355 188.269 9.62012 188.035 10.0441 188.061C10.4342 188.101 10.7055 188.416 10.6603 188.767C10.2194 192.062 9.8406 195.46 9.54098 198.862C9.51837 199.193 9.20744 199.446 8.83999 199.446V199.446ZM426.534 209.883C426.331 209.883 426.127 209.801 425.986 209.649C423.634 207.069 421.187 204.454 418.705 201.874C418.45 201.61 418.484 201.209 418.784 200.98C419.078 200.747 419.525 200.782 419.779 201.046C422.266 203.631 424.725 206.257 427.083 208.847C427.332 209.116 427.286 209.517 426.981 209.74C426.851 209.837 426.693 209.883 426.534 209.883V209.883ZM7.92423 219.775V219.775C7.53417 219.77 7.21759 219.486 7.21759 219.135C7.23455 215.728 7.31935 212.3 7.46633 208.943C7.48329 208.598 7.78291 208.308 8.20124 208.334C8.59131 208.349 8.89658 208.643 8.87962 208.994C8.73264 212.335 8.64784 215.748 8.63088 219.14C8.63088 219.491 8.3143 219.775 7.92423 219.775V219.775ZM440.39 225.986C440.17 225.986 439.955 225.9 439.819 225.727C437.598 222.99 435.314 220.253 433.03 217.602C432.793 217.322 432.849 216.926 433.16 216.708C433.465 216.495 433.906 216.54 434.149 216.825C436.444 219.486 438.734 222.233 440.961 224.981C441.187 225.265 441.12 225.661 440.809 225.864C440.679 225.951 440.532 225.986 440.39 225.986V225.986ZM8.56291 240.119C8.18981 240.119 7.87888 239.855 7.85627 239.52C7.63014 236.077 7.46055 232.644 7.35879 229.333C7.34749 228.982 7.65276 228.688 8.04282 228.678H8.06544C8.4442 228.678 8.76077 228.952 8.77208 229.297C8.87384 232.598 9.04343 236.011 9.26956 239.444C9.29217 239.794 8.99255 240.094 8.60249 240.119H8.56291ZM453.138 242.806C452.906 242.806 452.675 242.704 452.539 242.511C450.549 239.693 448.457 236.839 446.326 234.03C446.111 233.741 446.191 233.345 446.513 233.147C446.829 232.949 447.276 233.025 447.496 233.314C449.633 236.133 451.736 239.002 453.732 241.831C453.941 242.13 453.845 242.521 453.517 242.709C453.398 242.775 453.268 242.806 453.138 242.806V242.806ZM464.58 260.367C464.331 260.367 464.088 260.245 463.958 260.032C462.195 257.086 460.335 254.11 458.424 251.18C458.232 250.88 458.345 250.495 458.678 250.312C459.006 250.129 459.447 250.236 459.645 250.54C461.561 253.481 463.433 256.472 465.202 259.432C465.389 259.737 465.259 260.128 464.914 260.291C464.812 260.342 464.693 260.367 464.58 260.367V260.367ZM10.5586 260.392C10.2024 260.392 9.89717 260.154 9.8576 259.829C9.411 256.411 9.02659 252.993 8.6987 249.692C8.66478 249.342 8.9531 249.032 9.33751 249.001C9.79542 248.966 10.0724 249.23 10.1063 249.575C10.4286 252.871 10.8186 256.274 11.2596 259.686C11.3048 260.032 11.0278 260.347 10.6377 260.387C10.6095 260.392 10.5869 260.392 10.5586 260.392V260.392ZM474.468 278.664C474.196 278.664 473.936 278.522 473.817 278.284C472.325 275.191 470.736 272.088 469.103 269.066C468.933 268.751 469.08 268.37 469.431 268.218C469.775 268.061 470.199 268.193 470.375 268.508C472.02 271.555 473.614 274.668 475.118 277.776C475.27 278.101 475.106 278.471 474.75 278.614C474.66 278.644 474.564 278.664 474.468 278.664V278.664ZM13.7412 280.543C13.402 280.543 13.1024 280.32 13.0459 280.01C12.4071 276.613 11.8248 273.225 11.3103 269.94C11.2538 269.594 11.5252 269.269 11.9096 269.224C12.2714 269.168 12.6501 269.412 12.7067 269.762C13.2211 273.038 13.8034 276.415 14.4365 279.802C14.5044 280.147 14.2443 280.472 13.8599 280.533C13.8203 280.538 13.7808 280.543 13.7412 280.543V280.543ZM482.45 297.688C482.15 297.688 481.873 297.52 481.777 297.251C480.652 294.093 479.403 290.878 478.057 287.684C477.922 287.354 478.103 286.988 478.47 286.866C478.832 286.724 479.239 286.902 479.38 287.232C480.737 290.446 481.992 293.686 483.123 296.86C483.241 297.195 483.038 297.556 482.665 297.663C482.591 297.683 482.518 297.688 482.45 297.688V297.688ZM18.0093 300.527C17.6815 300.527 17.3931 300.324 17.3197 300.024C16.5282 296.733 15.765 293.371 15.0584 290.04C14.9792 289.695 15.2336 289.365 15.6181 289.299C15.9912 289.207 16.3699 289.456 16.4434 289.801C17.1501 293.123 17.9076 296.474 18.699 299.76C18.7838 300.1 18.5407 300.441 18.1563 300.512C18.1111 300.522 18.0602 300.527 18.0093 300.527V300.527ZM488.103 317.367C487.775 317.367 487.476 317.154 487.413 316.849C486.712 313.614 485.876 310.293 484.92 306.976C484.824 306.636 485.05 306.291 485.429 306.205C485.797 306.118 486.187 306.321 486.288 306.662C487.249 309.998 488.097 313.345 488.798 316.61C488.872 316.95 488.623 317.286 488.239 317.352C488.193 317.362 488.148 317.367 488.103 317.367V317.367ZM23.2725 320.317C22.9559 320.317 22.6732 320.124 22.5884 319.84C21.633 316.559 20.7116 313.263 19.8353 309.963C19.7449 309.617 19.9767 309.277 20.3554 309.196C20.7285 309.114 21.1186 309.323 21.2091 309.663C22.091 312.959 23.0011 316.245 23.9565 319.52C24.0526 319.86 23.8321 320.206 23.4534 320.297C23.3912 320.307 23.329 320.317 23.2725 320.317V320.317ZM490.901 337.518C490.528 337.518 490.217 337.254 490.195 336.914C490.002 333.597 489.669 330.205 489.194 326.838C489.143 326.493 489.42 326.173 489.805 326.132C490.229 326.102 490.545 326.335 490.596 326.681C491.071 330.078 491.416 333.501 491.608 336.848C491.631 337.198 491.331 337.498 490.941 337.518H490.901ZM29.6323 340.362C29.3327 340.362 29.0557 340.189 28.9596 339.915L28.79 339.422C27.6876 336.198 26.6022 332.912 25.579 329.662C25.4716 329.326 25.6864 328.976 26.0652 328.88C26.4552 328.788 26.834 328.981 26.9358 329.316C27.9646 332.556 29.0444 335.837 30.1467 339.057L30.305 339.539C30.4237 339.874 30.2146 340.225 29.8415 340.331C29.7736 340.352 29.7001 340.362 29.6323 340.362V340.362ZM490.534 357.832C490.517 357.832 490.506 357.832 490.489 357.832C490.099 357.806 489.805 357.501 489.833 357.151C490.093 353.83 490.274 350.427 490.359 347.035C490.364 346.684 490.641 346.431 491.082 346.415C491.467 346.42 491.778 346.71 491.772 347.065C491.687 350.478 491.506 353.901 491.24 357.242C491.218 357.578 490.901 357.832 490.534 357.832V357.832ZM36.6366 359.7C36.3483 359.7 36.0713 359.538 35.9695 359.274C34.7484 356.069 33.55 352.85 32.3798 349.62C32.261 349.29 32.4646 348.929 32.8377 348.822C33.2108 348.716 33.6065 348.899 33.7252 349.229C34.8954 352.448 36.0882 355.663 37.3093 358.862C37.4337 359.193 37.2358 359.553 36.8684 359.67C36.7892 359.69 36.7157 359.7 36.6366 359.7V359.7ZM487.758 377.993C487.719 377.993 487.679 377.988 487.634 377.983C487.249 377.917 486.995 377.586 487.063 377.246C487.713 373.976 488.278 370.609 488.747 367.232C488.793 366.881 489.166 366.632 489.533 366.678C489.923 366.724 490.195 367.039 490.149 367.389C489.68 370.792 489.109 374.179 488.453 377.465C488.391 377.774 488.097 377.993 487.758 377.993V377.993ZM44.2965 378.815C44.0139 378.815 43.7425 378.658 43.6407 378.404C42.3066 375.24 41.0007 372.061 39.7175 368.872C39.5818 368.542 39.774 368.176 40.1414 368.054C40.5146 367.943 40.9103 368.11 41.0459 368.44C42.3236 371.624 43.6294 374.798 44.9579 377.952C45.0936 378.282 44.9127 378.648 44.5509 378.77C44.4661 378.8 44.3813 378.815 44.2965 378.815V378.815ZM52.6632 397.727C52.3862 397.727 52.1261 397.58 52.0131 397.336C50.5602 394.213 49.1413 391.07 47.7393 387.901C47.5923 387.576 47.7732 387.205 48.135 387.078C48.4855 386.951 48.9038 387.103 49.0508 387.428C50.4472 390.592 51.8718 393.731 53.3133 396.849C53.4659 397.174 53.2963 397.545 52.9345 397.677C52.8441 397.712 52.7536 397.727 52.6632 397.727V397.727ZM482.506 397.743C482.444 397.743 482.376 397.738 482.303 397.717C481.93 397.616 481.721 397.26 481.834 396.925C482.908 393.715 483.897 390.425 484.762 387.154C484.858 386.814 485.22 386.606 485.616 386.682C485.994 386.768 486.232 387.108 486.141 387.449C485.265 390.745 484.27 394.056 483.185 397.291C483.094 397.565 482.812 397.743 482.506 397.743V397.743ZM61.7309 416.38C61.4652 416.38 61.2108 416.243 61.0921 416.01C59.5261 412.937 57.9772 409.834 56.4565 406.711C56.3039 406.391 56.4678 406.015 56.8239 405.873C57.1801 405.741 57.5984 405.878 57.7567 406.203C59.2718 409.321 60.8094 412.414 62.3753 415.481C62.5393 415.801 62.381 416.177 62.0305 416.325C61.9344 416.365 61.8326 416.38 61.7309 416.38V416.38ZM474.694 416.802C474.598 416.802 474.502 416.787 474.405 416.746C474.049 416.609 473.891 416.233 474.044 415.913C475.547 412.846 476.961 409.687 478.261 406.523C478.397 406.198 478.798 406.026 479.171 406.147C479.533 406.269 479.719 406.635 479.584 406.965C478.278 410.154 476.848 413.333 475.338 416.421C475.22 416.66 474.965 416.802 474.694 416.802V416.802ZM71.5504 434.718C71.2904 434.718 71.0416 434.592 70.9173 434.373C69.227 431.357 67.5536 428.31 65.9029 425.232C65.7333 424.917 65.8803 424.536 66.2365 424.384C66.5983 424.237 67.0109 424.364 67.1805 424.678C68.8256 427.746 70.4876 430.788 72.1779 433.799C72.3532 434.114 72.2175 434.495 71.867 434.652C71.7652 434.698 71.6578 434.718 71.5504 434.718V434.718ZM464.36 434.881C464.235 434.881 464.111 434.856 463.998 434.795C463.659 434.612 463.551 434.226 463.749 433.926C465.666 431.016 467.503 428.03 469.205 425.044C469.385 424.729 469.804 424.607 470.154 424.77C470.505 424.932 470.64 425.313 470.465 425.623C468.747 428.629 466.898 431.641 464.965 434.571C464.835 434.769 464.597 434.881 464.36 434.881V434.881ZM451.742 451.741C451.595 451.741 451.442 451.701 451.312 451.614C451.007 451.406 450.945 451.005 451.177 450.726C453.444 448.034 455.648 445.266 457.729 442.488C457.949 442.199 458.384 442.118 458.712 442.316C459.035 442.514 459.119 442.91 458.899 443.199C456.807 445.998 454.591 448.786 452.307 451.492C452.166 451.655 451.957 451.741 451.742 451.741V451.741ZM82.1614 452.701C81.9127 452.701 81.6752 452.584 81.5452 452.376C79.7419 449.471 77.9215 446.46 76.1295 443.423C75.9486 443.113 76.073 442.727 76.4178 442.565C76.7683 442.412 77.1923 442.519 77.3732 442.829C79.1652 445.855 80.9799 448.862 82.7776 451.756C82.9698 452.061 82.8454 452.452 82.5063 452.62C82.3988 452.676 82.2801 452.701 82.1614 452.701V452.701ZM437.168 467.271C436.998 467.271 436.823 467.215 436.688 467.098C436.405 466.865 436.388 466.458 436.654 466.205C439.231 463.721 441.753 461.167 444.144 458.622C444.398 458.363 444.845 458.323 445.139 458.546C445.439 458.775 445.478 459.176 445.224 459.445C442.816 462.005 440.283 464.569 437.688 467.073C437.547 467.205 437.36 467.271 437.168 467.271V467.271ZM93.6373 470.247C93.4055 470.247 93.1737 470.14 93.038 469.947C91.0764 467.098 89.1035 464.163 87.1757 461.223C86.9835 460.918 87.0909 460.527 87.4301 460.349C87.7637 460.171 88.1989 460.278 88.3968 460.578C90.3189 463.513 92.2805 466.438 94.2422 469.277C94.4457 469.577 94.3439 469.968 94.0104 470.15C93.8973 470.216 93.7673 470.247 93.6373 470.247V470.247ZM420.994 481.485C420.797 481.485 420.604 481.414 420.463 481.272C420.203 481.013 420.231 480.612 420.52 480.378C423.357 478.093 426.127 475.767 428.767 473.451C429.044 473.208 429.497 473.218 429.762 473.462C430.039 473.715 430.034 474.117 429.751 474.36C427.1 476.686 424.313 479.027 421.464 481.323C421.328 481.43 421.158 481.485 420.994 481.485V481.485ZM106.074 487.26C105.848 487.26 105.628 487.163 105.492 486.985C103.355 484.228 101.218 481.384 99.1434 478.535C98.9229 478.245 99.0191 477.849 99.3469 477.656C99.6692 477.468 100.104 477.55 100.325 477.844C102.394 480.683 104.525 483.512 106.651 486.259C106.877 486.549 106.798 486.945 106.476 487.143C106.351 487.219 106.216 487.26 106.074 487.26V487.26ZM403.549 494.451C403.334 494.451 403.125 494.364 402.989 494.202C402.752 493.922 402.808 493.526 403.119 493.313C406.121 491.241 409.1 489.118 411.961 486.995C412.26 486.767 412.701 486.808 412.95 487.077C413.199 487.351 413.159 487.747 412.86 487.971C409.982 490.109 406.997 492.241 403.978 494.319C403.848 494.41 403.696 494.451 403.549 494.451V494.451ZM119.568 503.597C119.365 503.597 119.156 503.516 119.014 503.358C116.73 500.763 114.407 498.041 112.106 495.263C111.874 494.984 111.942 494.583 112.253 494.374C112.57 494.171 113.011 494.227 113.248 494.506C115.532 497.274 117.844 499.986 120.122 502.566C120.365 502.84 120.314 503.241 120.009 503.46C119.879 503.551 119.727 503.597 119.568 503.597V503.597ZM385.136 506.288C384.91 506.288 384.69 506.187 384.549 506.004C384.334 505.714 384.419 505.318 384.746 505.125C387.89 503.231 391.016 501.286 394.04 499.346C394.351 499.138 394.798 499.209 395.024 499.493C395.25 499.778 395.182 500.179 394.866 500.382C391.83 502.327 388.692 504.277 385.532 506.182C385.413 506.253 385.272 506.288 385.136 506.288V506.288ZM365.989 517.146C365.746 517.146 365.514 517.034 365.379 516.836C365.181 516.537 365.288 516.145 365.627 515.963C368.917 514.2 372.162 512.418 375.266 510.656C375.6 510.478 376.035 510.559 376.244 510.854C376.447 511.153 376.351 511.544 376.024 511.732C372.903 513.495 369.652 515.287 366.351 517.054C366.238 517.115 366.114 517.146 365.989 517.146V517.146ZM134.278 519.066C134.091 519.066 133.899 518.994 133.763 518.862C131.248 516.42 128.709 513.85 126.222 511.235C125.973 510.971 126.002 510.564 126.301 510.341C126.601 510.117 127.047 510.143 127.296 510.412C129.772 513.017 132.299 515.567 134.798 517.999C135.064 518.258 135.047 518.659 134.758 518.898C134.623 519.01 134.453 519.066 134.278 519.066V519.066ZM346.277 527.171C346.022 527.171 345.779 527.049 345.655 526.841C345.468 526.531 345.598 526.145 345.937 525.977C349.273 524.362 352.574 522.727 355.842 521.066C356.181 520.894 356.611 521 356.808 521.305C356.995 521.61 356.876 521.996 356.537 522.174C353.264 523.834 349.951 525.474 346.61 527.094C346.503 527.145 346.39 527.171 346.277 527.171V527.171ZM150.378 533.366C150.208 533.366 150.039 533.31 149.909 533.204C147.133 530.969 144.352 528.613 141.65 526.201C141.367 525.952 141.367 525.551 141.644 525.302C141.915 525.053 142.362 525.053 142.639 525.297C145.33 527.699 148.094 530.035 150.853 532.259C151.141 532.493 151.164 532.894 150.904 533.158C150.762 533.295 150.57 533.366 150.378 533.366V533.366ZM326.151 536.5C325.891 536.5 325.637 536.373 325.518 536.149C325.343 535.834 325.49 535.448 325.835 535.296C329.227 533.783 332.596 532.259 335.937 530.71C336.276 530.553 336.7 530.675 336.887 530.985C337.062 531.294 336.932 531.68 336.582 531.843C333.235 533.392 329.866 534.92 326.462 536.434C326.361 536.479 326.253 536.5 326.151 536.5V536.5ZM305.704 545.27C305.438 545.27 305.184 545.133 305.065 544.899C304.901 544.584 305.054 544.204 305.41 544.061C308.842 542.634 312.262 541.192 315.654 539.74C315.998 539.598 316.434 539.724 316.598 540.039C316.767 540.354 316.615 540.735 316.264 540.887C312.861 542.345 309.441 543.782 305.998 545.209C305.908 545.25 305.806 545.27 305.704 545.27V545.27ZM168.055 546.057C167.92 546.057 167.778 546.017 167.654 545.94C164.63 544.031 161.571 541.969 158.569 539.806C158.264 539.587 158.213 539.186 158.456 538.912C158.711 538.643 159.152 538.597 159.451 538.815C162.43 540.959 165.461 543.01 168.462 544.899C168.785 545.102 168.864 545.499 168.638 545.788C168.502 545.961 168.281 546.057 168.055 546.057V546.057ZM285.081 553.573C284.81 553.573 284.55 553.431 284.431 553.192C284.279 552.872 284.443 552.497 284.799 552.354C288.258 550.999 291.707 549.632 295.133 548.251C295.489 548.109 295.907 548.251 296.065 548.571C296.224 548.891 296.065 549.267 295.715 549.409C292.278 550.79 288.829 552.161 285.364 553.517C285.274 553.553 285.177 553.573 285.081 553.573V553.573ZM187.48 556.463C187.372 556.463 187.265 556.443 187.163 556.397C183.845 554.929 180.487 553.289 177.18 551.506C176.846 551.329 176.739 550.938 176.936 550.638C177.134 550.338 177.57 550.237 177.909 550.42C181.182 552.177 184.506 553.807 187.79 555.259C188.141 555.417 188.282 555.793 188.113 556.107C187.988 556.336 187.734 556.463 187.48 556.463V556.463ZM264.204 561.45C263.916 561.45 263.645 561.287 263.543 561.028C263.407 560.698 263.599 560.333 263.967 560.216C265.606 559.683 267.285 559.093 268.959 558.459C270.773 557.768 272.594 557.077 274.408 556.382C274.764 556.25 275.183 556.392 275.335 556.712C275.488 557.037 275.324 557.413 274.968 557.545C273.148 558.245 271.327 558.941 269.507 559.632C267.811 560.272 266.109 560.871 264.447 561.409C264.368 561.435 264.283 561.45 264.204 561.45V561.45ZM208.594 563.639C208.538 563.639 208.475 563.628 208.419 563.618C204.829 562.765 201.188 561.709 197.593 560.48C197.226 560.358 197.039 559.987 197.18 559.662C197.322 559.332 197.729 559.17 198.091 559.297C201.646 560.505 205.242 561.551 208.775 562.389C209.154 562.481 209.38 562.826 209.278 563.161C209.193 563.451 208.911 563.639 208.594 563.639V563.639ZM242.208 566.056C241.846 566.056 241.541 565.812 241.501 565.487C241.462 565.137 241.744 564.827 242.129 564.786C245.82 564.436 249.546 563.867 253.198 563.095C253.593 563.009 253.961 563.232 254.046 563.568C254.142 563.908 253.904 564.253 253.525 564.329C249.811 565.116 246.029 565.69 242.281 566.051C242.253 566.056 242.23 566.056 242.208 566.056V566.056ZM230.902 566.493H230.89C227.142 566.427 223.332 566.142 219.556 565.655C219.171 565.604 218.906 565.284 218.962 564.939C219.013 564.588 219.335 564.339 219.759 564.4C223.473 564.883 227.227 565.157 230.918 565.223C231.303 565.233 231.619 565.523 231.608 565.873C231.603 566.218 231.286 566.493 230.902 566.493V566.493Z" fill="#D8D5DB"/>
<mask id="mask1" mask-type="alpha" maskUnits="userSpaceOnUse" x="52" y="83" width="413" height="500">
<path fill-rule="evenodd" clip-rule="evenodd" d="M52.9291 83.4173H464.126V582.299H52.9291V83.4173Z" fill="white"/>
</mask>
<g mask="url(#mask1)">
<path fill-rule="evenodd" clip-rule="evenodd" d="M435.987 502.436C432.821 503.198 429.655 504.67 427.111 507.26C425.641 508.784 423.719 511.628 422.023 514.624C421.628 504.366 421.232 495.631 420.836 490.248C421.91 490.146 422.532 490.146 422.532 490.146C422.532 488.927 422.532 487.709 422.476 486.388C422.193 461.656 419.197 418.642 415.24 375.781C416.653 378.421 418.01 380.859 419.31 383.043C419.366 383.805 419.366 384.566 419.536 385.379C421.628 395.637 432.086 452.414 435.139 486.642C435.704 492.787 435.987 498.17 435.987 502.436M461.143 377.304V377.203C457.864 367.604 446.841 339.013 434.291 310.625L448.198 306.359C448.198 306.359 407.495 241.305 383.695 226.984C383.639 226.933 383.582 226.933 383.525 226.882C375.159 219.874 362.948 215.303 344.688 213.424C344.575 199.865 345.706 177.012 347.006 159.492C356.39 157.562 360.913 147.659 361.535 145.475C362.835 141.006 361.648 137.299 359.217 134.912C359.952 129.377 361.196 118.611 360.856 109.368C360.574 100.887 359.047 93.7264 354.638 92.8631C354.694 92.7108 354.807 92.6092 354.864 92.5076C356.334 88.2926 353.564 83.6204 353.451 83.4173L350.963 84.6361C351.642 85.7026 353.055 89.0543 352.15 91.6951C347.967 87.5308 334.965 85.8549 320.38 86.1088C299.972 86.4136 276.568 90.6286 270.236 97.2305C265.827 101.801 267.127 104.29 271.706 105.407C271.028 109.673 270.745 113.38 270.632 116.782C269.954 118.357 269.332 119.982 268.71 121.708C267.071 122.724 265.488 124.197 264.3 126.482L266.901 127.549C266.957 127.447 267.014 127.396 267.071 127.295C266.392 129.885 265.77 132.525 265.318 135.42C260.23 166.906 251.92 198.24 286.687 198.595C286.63 202.15 286.404 205.604 286.009 208.854C285.726 211.444 285.33 213.881 284.821 216.065C271.593 218.96 261.248 223.53 254.068 229.675C228.516 248.618 196.237 309.457 196.237 309.457L207.091 314.281C199.063 328.298 191.149 342.619 185.213 354.248C157.739 337.185 109.461 305.546 95.2147 291.682C95.2147 291.632 95.1581 291.632 95.1016 291.581C95.6669 286.248 94.5928 277.615 93.0099 272.74C93.0099 272.638 93.0099 272.537 92.9534 272.384C92.8403 272.131 92.7273 271.978 92.6707 271.775C92.5577 271.47 92.4446 271.115 92.3316 270.861C92.0489 270.201 91.8228 269.744 91.5966 269.337C87.809 261.821 81.8167 258.876 78.2552 248.871C76.3897 243.539 71.8106 245.723 70.0581 249.278L56.6036 222.261L52.9291 223.733L70.2277 258.622C66.1575 256.997 62.596 256.032 60.1651 256.794C56.8298 257.809 53.1552 272.892 54.7381 278.275C56.321 283.608 72.5455 300.773 78.5944 303.718C79.0466 303.921 79.5554 304.074 80.0077 304.124C89.7876 316.414 154.629 385.582 180.69 397.567C196.858 404.931 209.013 398.583 213.026 389.137C218.227 381.621 227.781 366.944 238.183 349.982C234.791 397.211 228.29 450.433 216.023 487.759C217.153 487.912 218.34 488.064 219.528 488.216C216.079 503.705 213.535 524.07 211.726 544.739C224.502 549.614 237.505 554.032 250.62 557.994C309.13 575.768 369.845 584.655 422.645 581.76C423.493 579.424 423.889 576.987 423.832 574.397C423.55 564.24 423.211 551.798 422.871 539.508C425.698 546.11 429.373 551.544 432.312 552.915C435.421 554.337 450.12 546.262 453.342 541.438C456.508 536.766 458.939 514.319 457.073 508.327C456.96 507.921 456.621 507.616 456.395 507.26C457.073 503.909 458.091 496.596 459.221 487.048C462.839 454.851 467.136 397.008 461.143 377.304" fill="#D1CDD3"/>
</g>
<path fill-rule="evenodd" clip-rule="evenodd" d="M316.768 279.891L279.916 258.288C279.916 258.288 243.289 318.838 225.227 354.264C197.77 337.186 149.492 305.563 135.24 291.668C135.201 291.633 135.161 291.612 135.121 291.577C135.681 286.234 134.607 277.626 133.041 272.746C133.007 272.619 133.001 272.517 132.951 272.38C132.871 272.152 132.764 271.969 132.679 271.751C132.566 271.466 132.464 271.106 132.351 270.862C132.052 270.207 131.82 269.729 131.611 269.318C127.823 261.848 121.819 258.862 118.281 248.888C115.816 241.925 108.71 247.765 109.411 252.788C109.411 252.788 110.468 256.048 111.661 259.187C106.963 257.176 102.904 255.957 100.168 256.785C96.8552 257.785 93.1523 272.888 94.7409 278.287C96.3012 283.599 112.548 300.774 118.631 303.729C119.072 303.943 119.536 304.059 120.01 304.125C129.819 316.43 194.66 385.603 220.727 397.548C236.872 404.947 248.998 398.573 253.052 389.148C265.376 371.176 302.67 312.683 316.768 279.891" fill="#FFAD69"/>
<path fill-rule="evenodd" clip-rule="evenodd" d="M321.784 242.692C327.369 267.931 304.915 339.755 304.915 339.755L236.229 309.472C236.229 309.472 307.052 176.109 321.784 242.692" fill="#EA3939"/>
<path fill-rule="evenodd" clip-rule="evenodd" d="M463.858 574.396C463.858 575.209 463.858 576.021 463.745 576.834C450.799 579.373 437.005 581.049 422.646 581.76C369.846 584.655 309.131 575.767 250.621 557.993C252.656 530.874 255.822 502.588 260.683 483.493L422.477 486.388L435.14 486.641L459.222 487.048L460.635 487.099C461.766 498.677 463.123 545.551 463.858 574.396" fill="#232323"/>
<path fill-rule="evenodd" clip-rule="evenodd" d="M371.448 212.578C415.847 213.893 430.857 227.356 438.511 250.641C447.2 277.079 462.509 436.764 462.509 490.123C462.509 490.123 329.637 498.578 256.027 487.741C279.103 417.71 281.602 291.781 282.066 254.267C282.41 226.117 315.159 210.907 371.448 212.578" fill="#FF4E4A"/>
<path fill-rule="evenodd" clip-rule="evenodd" d="M332.334 147.281C327.958 144.325 305.142 147.006 311.717 105.277C314.108 90.0522 330.027 100.214 341.294 102.245C352.561 104.277 345.398 148.032 345.398 148.032L332.334 147.281Z" fill="#232323"/>
<path fill-rule="evenodd" clip-rule="evenodd" d="M389.141 137.285C387.248 148.346 383.46 208.189 385.037 222.084C386.614 235.983 311.789 239.955 321.575 224.638C331.366 209.322 324.418 158.553 324.418 158.553L389.141 137.285Z" fill="#FFAD69"/>
<path fill-rule="evenodd" clip-rule="evenodd" d="M383.96 138.976L324.427 158.558C324.427 158.558 328.446 188.13 326.021 208.946C371.416 205.792 383.067 154.287 383.836 144.369C383.96 142.5 384.022 140.698 383.96 138.976" fill="#D88344"/>
<path fill-rule="evenodd" clip-rule="evenodd" d="M305.313 135.403C299.796 169.565 290.428 203.626 336.524 198.019C382.626 192.413 389.788 139.318 389.652 129.304C388.934 75.8637 316.161 68.2258 305.313 135.403" fill="#FFAD69"/>
<path fill-rule="evenodd" clip-rule="evenodd" d="M394.623 92.8437C394.68 92.7117 394.804 92.6203 394.855 92.4883C396.353 88.2986 393.594 83.6315 393.476 83.4335L390.988 84.6371C391.011 84.6777 393.272 88.5423 392.164 91.6859C382.067 81.6662 321.076 85.9371 310.227 97.2569C296.445 111.639 338.832 105.154 362.717 101.523C366.063 114.087 381.225 134.893 385.595 137.849L398.66 138.605C398.66 138.605 405.788 95.0478 394.623 92.8437" fill="#232323"/>
<path fill-rule="evenodd" clip-rule="evenodd" d="M496.405 507.244C499.333 492.628 508.977 402.847 501.17 377.323C501.159 377.283 501.165 377.242 501.153 377.196C495.704 361.22 468.642 292.352 449.048 259.743L406.825 270.875C406.825 270.875 442.163 353.724 459.298 383.026C459.348 383.814 459.348 384.586 459.518 385.398C462.039 397.485 476.127 474.174 475.969 502.42C472.848 503.202 469.671 504.674 467.144 507.264C463.927 510.565 458.32 520.047 458.715 524.252C459.84 536.252 467.263 550.548 472.345 552.909C475.454 554.351 490.107 546.241 493.324 541.462C496.49 536.76 498.932 514.328 497.066 508.346C496.942 507.935 496.637 507.605 496.405 507.244" fill="#FFAD69"/>
<path fill-rule="evenodd" clip-rule="evenodd" d="M423.706 226.99C447.523 241.291 488.181 306.34 488.181 306.34L415.781 328.558C415.781 328.558 360.877 189.268 423.706 226.99" fill="#FF4E4A"/>
<path fill-rule="evenodd" clip-rule="evenodd" d="M344.132 133.712C344.279 135.377 343.278 136.804 341.887 136.906C340.497 137.002 339.253 135.738 339.106 134.072C338.953 132.412 339.959 130.979 341.35 130.883C342.735 130.781 343.979 132.046 344.132 133.712" fill="#232323"/>
<path fill-rule="evenodd" clip-rule="evenodd" d="M314.767 134.411C314.914 136.077 313.914 137.504 312.523 137.605C311.138 137.702 309.889 136.437 309.742 134.777C309.589 133.111 310.595 131.679 311.986 131.582C313.371 131.481 314.62 132.745 314.767 134.411" fill="#232323"/>
<path fill-rule="evenodd" clip-rule="evenodd" d="M351.352 124.365C347.423 118.947 340.662 120.237 340.594 120.247L339.972 117.769C340.329 117.703 348.729 116.103 353.721 122.979L351.352 124.365Z" fill="#232323"/>
<path fill-rule="evenodd" clip-rule="evenodd" d="M306.903 127.53L304.336 126.473C308.146 119.003 316.711 119.486 317.073 119.501L316.875 122.035C316.609 122.02 309.887 121.7 306.903 127.53" fill="#232323"/>
<path fill-rule="evenodd" clip-rule="evenodd" d="M334.694 165.166C332.817 165.166 331.63 164.978 331.585 164.968L332.099 162.475C332.619 162.561 345.028 164.45 351.942 154.116L354.361 155.426C348.657 163.947 339.471 165.166 334.694 165.166" fill="#232323"/>
<path fill-rule="evenodd" clip-rule="evenodd" d="M312.962 153.594L320.152 131.574L322.86 132.285L316.749 151.009L326.648 150.892L326.688 153.431L312.962 153.594Z" fill="#D88344"/>
<path fill-rule="evenodd" clip-rule="evenodd" d="M129.825 289.146L126.128 290.629L92.9437 223.741L96.6352 222.258L129.825 289.146Z" fill="#232323"/>
<path fill-rule="evenodd" clip-rule="evenodd" d="M377.962 141.632C373.796 150.062 368.584 158.218 381.659 159.731C394.735 161.25 400.818 148.061 401.559 145.476C405.51 131.694 386.148 125.056 377.962 141.632" fill="#FFAD69"/>
<path fill-rule="evenodd" clip-rule="evenodd" d="M182.36 0.00201416H49.3353C44.6997 0.00201416 40.9404 3.37407 40.9404 7.53836V50.0902C40.9404 54.2545 44.6997 57.6317 49.3353 57.6317H57.4363L66.5718 68.5959C68.6012 71.0336 72.8581 70.3073 73.7569 67.372L76.7192 57.6317H182.36C186.995 57.6317 190.749 54.2545 190.749 50.0902V7.53836C190.749 3.37407 186.995 0.00201416 182.36 0.00201416" fill="#4D8DFF"/>
<mask id="mask2" mask-type="alpha" maskUnits="userSpaceOnUse" x="0" y="0" width="588" height="583">
<path fill-rule="evenodd" clip-rule="evenodd" d="M0.0720825 582.299H587.757V0H0.0720825V582.299Z" fill="white"/>
</mask>
<g mask="url(#mask2)">
<path fill-rule="evenodd" clip-rule="evenodd" d="M54.0087 13.7066H171.623V11.1674H54.0087V13.7066Z" fill="white"/>
<path fill-rule="evenodd" clip-rule="evenodd" d="M54.0087 25.7221H131.672V23.1829H54.0087V25.7221Z" fill="white"/>
<path fill-rule="evenodd" clip-rule="evenodd" d="M54.0087 37.7376H151.085V35.1984H54.0087V37.7376Z" fill="white"/>
<path fill-rule="evenodd" clip-rule="evenodd" d="M151.085 142.391H49.3342C44.6986 142.391 40.9449 145.768 40.9449 149.927V192.479C40.9449 196.643 44.6986 200.02 49.3342 200.02H57.4352L66.5707 210.985C68.6002 213.422 72.8626 212.696 73.7558 209.761L76.7181 200.02H151.085C155.721 200.02 159.475 196.643 159.475 192.479V149.927C159.475 145.768 155.721 142.391 151.085 142.391" fill="#FF4E4A"/>
<path fill-rule="evenodd" clip-rule="evenodd" d="M54.0087 156.095H108.149V153.555H54.0087V156.095Z" fill="white"/>
<path fill-rule="evenodd" clip-rule="evenodd" d="M119.354 156.095H138.02V153.555H119.354V156.095Z" fill="white"/>
<path fill-rule="evenodd" clip-rule="evenodd" d="M54.0087 168.11H92.4671V165.571H54.0087V168.11Z" fill="white"/>
<path fill-rule="evenodd" clip-rule="evenodd" d="M54.0087 180.126H128.308V177.586H54.0087V180.126Z" fill="white"/>
<path fill-rule="evenodd" clip-rule="evenodd" d="M117.012 71.1564H240.895C245.525 71.1564 249.278 74.5336 249.278 78.6928V121.25C249.278 125.409 245.525 128.786 240.895 128.786H232.788L223.653 139.755C221.623 142.188 217.361 141.462 216.473 138.526L213.505 128.786H117.012C112.376 128.786 108.622 125.409 108.622 121.25V78.6928C108.622 74.5336 112.376 71.1564 117.012 71.1564" fill="#FFC84D"/>
<path fill-rule="evenodd" clip-rule="evenodd" d="M186.558 84.86H236.216V82.3208H186.558V84.86Z" fill="white"/>
<path fill-rule="evenodd" clip-rule="evenodd" d="M128.314 96.8806H236.216V94.3414H128.314V96.8806Z" fill="white"/>
<path fill-rule="evenodd" clip-rule="evenodd" d="M183.2 108.896H236.216V106.357H183.2V108.896Z" fill="white"/>
<path fill-rule="evenodd" clip-rule="evenodd" d="M149.965 108.896H174.234V106.357H149.965V108.896Z" fill="white"/>
<path fill-rule="evenodd" clip-rule="evenodd" d="M331.843 281.161C310.231 281.161 292.644 296.96 292.644 316.374C292.644 335.794 310.231 351.593 331.843 351.593C353.46 351.593 371.047 335.794 371.047 316.374C371.047 296.96 353.46 281.161 331.843 281.161M331.843 354.132C308.67 354.132 289.817 337.196 289.817 316.374C289.817 295.558 308.67 278.622 331.843 278.622C355.021 278.622 373.874 295.558 373.874 316.374C373.874 337.196 355.021 354.132 331.843 354.132" fill="white"/>
</g>
</svg>
